<?xml version="1.0" standalone="no"?>
<svg viewBox="0 0 200 200" xmlns="http://www.w3.org/2000/svg">
  <path fill="#FF0066" d="M44.4,-75.9C57.3,-69.3,67.6,-57.2,74.9,-43.6C82.1,-30,86.4,-15,84.8,-0.9C83.3,13.2,76,26.4,67.8,38.5C59.7,50.6,50.8,61.5,39.3,67C27.9,72.4,14,72.2,1.1,70.4C-11.8,68.5,-23.6,64.9,-35.7,59.9C-47.8,54.9,-60.2,48.4,-61.2,38.2C-62.1,28,-51.6,14,-45.1,3.8C-38.6,-6.5,-36.1,-13,-36.2,-25C-36.3,-37,-39,-54.6,-33.4,-65.4C-27.8,-76.3,-13.9,-80.3,0.9,-81.8C15.7,-83.4,31.4,-82.4,44.4,-75.9Z" transform="translate(100 100)" />
</svg>
